<svg id="visual" viewBox="0 0 960 540" width="960" height="540" xmlns="http://www.w3.org/2000/svg" xmlns:xlink="http://www.w3.org/1999/xlink" version="1.1"><rect x="0" y="0" width="960" height="540" fill="#F7770F"></rect><defs><linearGradient id="grad1_0" x1="43.8%" y1="0%" x2="100%" y2="100%"><stop offset="14.444444444444446%" stop-color="#dccde5" stop-opacity="1"></stop><stop offset="85.55555555555554%" stop-color="#dccde5" stop-opacity="1"></stop></linearGradient></defs><defs><linearGradient id="grad1_1" x1="43.8%" y1="0%" x2="100%" y2="100%"><stop offset="14.444444444444446%" stop-color="#dccde5" stop-opacity="1"></stop><stop offset="85.55555555555554%" stop-color="#faa7ce" stop-opacity="1"></stop></linearGradient></defs><defs><linearGradient id="grad1_2" x1="43.8%" y1="0%" x2="100%" y2="100%"><stop offset="14.444444444444446%" stop-color="#ff8086" stop-opacity="1"></stop><stop offset="85.55555555555554%" stop-color="#faa7ce" stop-opacity="1"></stop></linearGradient></defs><defs><linearGradient id="grad1_3" x1="43.8%" y1="0%" x2="100%" y2="100%"><stop offset="14.444444444444446%" stop-color="#ff8086" stop-opacity="1"></stop><stop offset="85.55555555555554%" stop-color="#f7770f" stop-opacity="1"></stop></linearGradient></defs><defs><linearGradient id="grad2_0" x1="0%" y1="0%" x2="56.3%" y2="100%"><stop offset="14.444444444444446%" stop-color="#dccde5" stop-opacity="1"></stop><stop offset="85.55555555555554%" stop-color="#dccde5" stop-opacity="1"></stop></linearGradient></defs><defs><linearGradient id="grad2_1" x1="0%" y1="0%" x2="56.3%" y2="100%"><stop offset="14.444444444444446%" stop-color="#faa7ce" stop-opacity="1"></stop><stop offset="85.55555555555554%" stop-color="#dccde5" stop-opacity="1"></stop></linearGradient></defs><defs><linearGradient id="grad2_2" x1="0%" y1="0%" x2="56.3%" y2="100%"><stop offset="14.444444444444446%" stop-color="#faa7ce" stop-opacity="1"></stop><stop offset="85.55555555555554%" stop-color="#ff8086" stop-opacity="1"></stop></linearGradient></defs><defs><linearGradient id="grad2_3" x1="0%" y1="0%" x2="56.3%" y2="100%"><stop offset="14.444444444444446%" stop-color="#f7770f" stop-opacity="1"></stop><stop offset="85.55555555555554%" stop-color="#ff8086" stop-opacity="1"></stop></linearGradient></defs><g transform="translate(960, 0)"><path d="M0 368C-19.2 370.2 -38.4 372.5 -59 372.4C-79.5 372.3 -101.4 369.8 -115 353.8C-128.5 337.7 -133.8 308.1 -156.2 306.5C-178.5 305 -217.9 331.5 -238.1 327.7C-258.2 323.8 -259 289.4 -267.3 267.3C-275.6 245.2 -291.5 235.3 -305 221.6C-318.5 207.9 -329.8 190.3 -336.8 171.6C-343.8 152.9 -346.6 133.1 -351.9 114.3C-357.2 95.6 -365.1 78 -373.3 59.1C-381.6 40.3 -390.3 20.1 -399 0L0 0Z" fill="#ff7655"></path><path d="M0 276C-14.4 277.7 -28.8 279.3 -44.2 279.3C-59.6 279.2 -76 277.4 -86.2 265.3C-96.4 253.3 -100.4 231 -117.1 229.9C-133.9 228.7 -163.5 248.7 -178.5 245.7C-193.6 242.8 -194.2 217 -200.5 200.5C-206.7 183.9 -218.6 176.5 -228.7 166.2C-238.9 155.9 -247.3 142.7 -252.6 128.7C-257.9 114.7 -259.9 99.8 -263.9 85.8C-267.9 71.7 -273.8 58.5 -280 44.3C-286.2 30.2 -292.7 15.1 -299.2 0L0 0Z" fill="#ff92b0"></path><path d="M0 184C-9.6 185.1 -19.2 186.2 -29.5 186.2C-39.8 186.1 -50.7 184.9 -57.5 176.9C-64.3 168.9 -66.9 154 -78.1 153.3C-89.3 152.5 -109 165.8 -119 163.8C-129.1 161.9 -129.5 144.7 -133.6 133.6C-137.8 122.6 -145.7 117.7 -152.5 110.8C-159.3 103.9 -164.9 95.2 -168.4 85.8C-171.9 76.5 -173.3 66.5 -175.9 57.2C-178.6 47.8 -182.5 39 -186.7 29.6C-190.8 20.1 -195.2 10.1 -199.5 0L0 0Z" fill="#e8bbe0"></path><path d="M0 92C-4.8 92.6 -9.6 93.1 -14.7 93.1C-19.9 93.1 -25.3 92.5 -28.7 88.4C-32.1 84.4 -33.5 77 -39 76.6C-44.6 76.2 -54.5 82.9 -59.5 81.9C-64.5 80.9 -64.7 72.3 -66.8 66.8C-68.9 61.3 -72.9 58.8 -76.2 55.4C-79.6 52 -82.4 47.6 -84.2 42.9C-86 38.2 -86.6 33.3 -88 28.6C-89.3 23.9 -91.3 19.5 -93.3 14.8C-95.4 10.1 -97.6 5 -99.7 0L0 0Z" fill="#dccde5"></path></g><g transform="translate(0, 540)"><path d="M0 -361C21.4 -379.9 42.8 -398.7 63.4 -400C83.9 -401.3 103.6 -385.1 119.3 -367.1C134.9 -349.1 146.5 -329.4 161.6 -317.2C176.8 -305 195.6 -300.5 212.2 -292.1C228.8 -283.6 243.2 -271.3 259.5 -259.5C275.8 -247.7 293.9 -236.5 301.8 -219.2C309.6 -202 307.2 -178.6 315.4 -160.7C323.7 -142.8 342.6 -130.4 350 -113.7C357.4 -97.1 353.3 -76.3 357.5 -56.6C361.8 -37 374.4 -18.5 387 0L0 0Z" fill="#ff7655"></path><path d="M0 -270.7C16 -284.9 32.1 -299 47.5 -300C62.9 -301 77.7 -288.8 89.5 -275.3C101.2 -261.8 109.8 -247 121.2 -237.9C132.6 -228.8 146.7 -225.4 159.1 -219C171.6 -212.7 182.4 -203.5 194.6 -194.6C206.8 -185.8 220.4 -177.4 226.3 -164.4C232.2 -151.5 230.4 -134 236.6 -120.5C242.7 -107.1 256.9 -97.8 262.5 -85.3C268 -72.8 265 -57.2 268.2 -42.5C271.3 -27.7 280.8 -13.9 290.3 0L0 0Z" fill="#ff92b0"></path><path d="M0 -180.5C10.7 -189.9 21.4 -199.4 31.7 -200C42 -200.7 51.8 -192.6 59.6 -183.6C67.5 -174.6 73.2 -164.7 80.8 -158.6C88.4 -152.5 97.8 -150.2 106.1 -146C114.4 -141.8 121.6 -135.6 129.8 -129.8C137.9 -123.9 147 -118.3 150.9 -109.6C154.8 -101 153.6 -89.3 157.7 -80.4C161.8 -71.4 171.3 -65.2 175 -56.9C178.7 -48.5 176.6 -38.1 178.8 -28.3C180.9 -18.5 187.2 -9.2 193.5 0L0 0Z" fill="#e8bbe0"></path><path d="M0 -90.2C5.3 -95 10.7 -99.7 15.8 -100C21 -100.3 25.9 -96.3 29.8 -91.8C33.7 -87.3 36.6 -82.3 40.4 -79.3C44.2 -76.3 48.9 -75.1 53 -73C57.2 -70.9 60.8 -67.8 64.9 -64.9C68.9 -61.9 73.5 -59.1 75.4 -54.8C77.4 -50.5 76.8 -44.7 78.9 -40.2C80.9 -35.7 85.6 -32.6 87.5 -28.4C89.3 -24.3 88.3 -19.1 89.4 -14.2C90.4 -9.2 93.6 -4.6 96.8 0L0 0Z" fill="#dccde5"></path></g></svg>